<?xml version="1.0" encoding="UTF-8" standalone="no"?>
<!DOCTYPE svg PUBLIC "-//W3C//DTD SVG 1.1//EN"
 "http://www.w3.org/Graphics/SVG/1.1/DTD/svg11.dtd">
<!-- Generated by graphviz version 11.0.0 (20240428.1522)
 -->
<!-- Title: G Pages: 1 -->
<svg width="681pt" height="306pt"
 viewBox="0.00 0.00 681.33 306.25" xmlns="http://www.w3.org/2000/svg" xmlns:xlink="http://www.w3.org/1999/xlink">
<g id="graph0" class="graph" transform="scale(1 1) rotate(0) translate(4 302.25)">
<title>G</title><style>.edge>path:hover{stroke-width:8}</style>
<polygon fill="white" stroke="none" points="-4,4 -4,-302.25 677.33,-302.25 677.33,4 -4,4"/>
<!-- command_handler -->
<g id="node1" class="node">
<title>command_handler</title><style>.edge>path:hover{stroke-width:8}</style>
<ellipse fill="#b65353" stroke="black" cx="57.43" cy="-136.25" rx="57.43" ry="18"/>
<text text-anchor="middle" x="57.43" y="-132.75" font-family="Helvetica,sans-Serif" font-size="10.00" fill="#ffffff">command_handler</text>
</g>
<!-- command_tool_py -->
<g id="node2" class="node">
<title>command_tool_py</title><style>.edge>path:hover{stroke-width:8}</style>
<ellipse fill="#7e6344" stroke="black" cx="286.43" cy="-22.63" rx="58.51" ry="22.63"/>
<text text-anchor="middle" x="286.43" y="-25.13" font-family="Helvetica,sans-Serif" font-size="10.00" fill="#ffffff">command_tool.</text>
<text text-anchor="middle" x="286.43" y="-13.13" font-family="Helvetica,sans-Serif" font-size="10.00" fill="#ffffff">py</text>
</g>
<!-- command_handler&#45;&gt;command_tool_py -->
<g id="edge1" class="edge">
<title>command_handler&#45;&gt;command_tool_py</title><style>.edge>path:hover{stroke-width:8}</style>
<path fill="none" stroke="black" d="M100.33,-123.97C108.01,-122.02 115.95,-120.04 123.43,-118.25 159.51,-109.63 294.62,-118.43 286.43,-82.25"/>
<path fill="none" stroke="black" d="M286.43,-81.25C284.66,-73.45 284,-64.9 283.92,-56.83"/>
<polygon fill="#b65353" stroke="black" points="287.42,-57.09 284.14,-47.01 280.42,-56.93 287.42,-57.09"/>
</g>
<!-- config -->
<g id="node3" class="node">
<title>config</title><style>.edge>path:hover{stroke-width:8}</style>
<ellipse fill="#adb653" stroke="black" cx="159.43" cy="-136.25" rx="27" ry="18"/>
<text text-anchor="middle" x="159.43" y="-132.75" font-family="Helvetica,sans-Serif" font-size="10.00" fill="#000000">config</text>
</g>
<!-- config&#45;&gt;command_tool_py -->
<g id="edge2" class="edge">
<title>config&#45;&gt;command_tool_py</title><style>.edge>path:hover{stroke-width:8}</style>
<path fill="none" stroke="black" d="M180.64,-124.96C185.48,-122.69 190.61,-120.34 195.43,-118.25 235.34,-100.96 296.03,-124.68 286.43,-82.25"/>
</g>
<!-- github_client -->
<g id="node4" class="node">
<title>github_client</title><style>.edge>path:hover{stroke-width:8}</style>
<ellipse fill="#6dac49" stroke="black" cx="479.43" cy="-136.25" rx="42.54" ry="18"/>
<text text-anchor="middle" x="479.43" y="-132.75" font-family="Helvetica,sans-Serif" font-size="10.00" fill="#000000">github_client</text>
</g>
<!-- github_client&#45;&gt;command_tool_py -->
<g id="edge3" class="edge">
<title>github_client&#45;&gt;command_tool_py</title><style>.edge>path:hover{stroke-width:8}</style>
<path fill="none" stroke="black" d="M446.8,-124.22C440.4,-122.16 433.72,-120.08 427.43,-118.25 365.32,-100.2 300.7,-145.34 286.43,-82.25"/>
</g>
<!-- llm -->
<g id="node5" class="node">
<title>llm</title><style>.edge>path:hover{stroke-width:8}</style>
<ellipse fill="#49ac5b" stroke="black" cx="231.43" cy="-136.25" rx="27" ry="18"/>
<text text-anchor="middle" x="231.43" y="-132.75" font-family="Helvetica,sans-Serif" font-size="10.00" fill="#000000">llm</text>
</g>
<!-- llm&#45;&gt;command_tool_py -->
<g id="edge4" class="edge">
<title>llm&#45;&gt;command_tool_py</title><style>.edge>path:hover{stroke-width:8}</style>
<path fill="none" stroke="black" d="M253.83,-125.68C270.92,-116.71 290.85,-101.78 286.43,-82.25"/>
</g>
<!-- logger -->
<g id="node6" class="node">
<title>logger</title><style>.edge>path:hover{stroke-width:8}</style>
<ellipse fill="#26d9a8" stroke="black" cx="335.43" cy="-208.25" rx="27" ry="18"/>
<text text-anchor="middle" x="335.43" y="-204.75" font-family="Helvetica,sans-Serif" font-size="10.00" fill="#000000">logger</text>
</g>
<!-- logger&#45;&gt;command_tool_py -->
<g id="edge5" class="edge">
<title>logger&#45;&gt;command_tool_py</title><style>.edge>path:hover{stroke-width:8}</style>
<path fill="none" stroke="black" d="M325.12,-191.56C318.74,-181.28 310.77,-167.38 305.43,-154.25 292.95,-123.6 293.73,-114.53 286.43,-82.25"/>
</g>
<!-- logger&#45;&gt;github_client -->
<g id="edge6" class="edge">
<title>logger&#45;&gt;github_client</title><style>.edge>path:hover{stroke-width:8}</style>
<path fill="none" stroke="black" d="M356.99,-196.78C379.43,-185.87 415.01,-168.57 442.04,-155.43"/>
<polygon fill="#26d9a8" stroke="black" points="443.48,-158.62 450.95,-151.1 440.42,-152.32 443.48,-158.62"/>
</g>
<!-- logger&#45;&gt;llm -->
<g id="edge7" class="edge">
<title>logger&#45;&gt;llm</title><style>.edge>path:hover{stroke-width:8}</style>
<path fill="none" stroke="black" d="M316.83,-194.74C300.86,-183.99 277.6,-168.33 259.38,-156.07"/>
<polygon fill="#26d9a8" stroke="black" points="261.37,-153.19 251.12,-150.51 257.46,-158.99 261.37,-153.19"/>
</g>
<!-- report_generator -->
<g id="node9" class="node">
<title>report_generator</title><style>.edge>path:hover{stroke-width:8}</style>
<ellipse fill="#724cb3" stroke="black" cx="366.43" cy="-136.25" rx="52.02" ry="18"/>
<text text-anchor="middle" x="366.43" y="-132.75" font-family="Helvetica,sans-Serif" font-size="10.00" fill="#ffffff">report_generator</text>
</g>
<!-- logger&#45;&gt;report_generator -->
<g id="edge8" class="edge">
<title>logger&#45;&gt;report_generator</title><style>.edge>path:hover{stroke-width:8}</style>
<path fill="none" stroke="black" d="M342.77,-190.67C346.24,-182.85 350.46,-173.32 354.37,-164.48"/>
<polygon fill="#26d9a8" stroke="black" points="357.46,-166.16 358.31,-155.59 351.06,-163.32 357.46,-166.16"/>
</g>
<!-- loguru -->
<g id="node7" class="node">
<title>loguru</title><style>.edge>path:hover{stroke-width:8}</style>
<ellipse fill="#409dc0" stroke="black" cx="335.43" cy="-280.25" rx="27" ry="18"/>
<text text-anchor="middle" x="335.43" y="-276.75" font-family="Helvetica,sans-Serif" font-size="10.00" fill="#000000">loguru</text>
</g>
<!-- loguru&#45;&gt;logger -->
<g id="edge9" class="edge">
<title>loguru&#45;&gt;logger</title><style>.edge>path:hover{stroke-width:8}</style>
<path fill="none" stroke="black" d="M335.43,-261.95C335.43,-254.66 335.43,-245.98 335.43,-237.79"/>
<polygon fill="#409dc0" stroke="black" points="338.93,-237.87 335.43,-227.87 331.93,-237.87 338.93,-237.87"/>
</g>
<!-- openai -->
<g id="node8" class="node">
<title>openai</title><style>.edge>path:hover{stroke-width:8}</style>
<ellipse fill="#4057c0" stroke="black" cx="231.43" cy="-208.25" rx="27" ry="18"/>
<text text-anchor="middle" x="231.43" y="-204.75" font-family="Helvetica,sans-Serif" font-size="10.00" fill="#ffffff">openai</text>
</g>
<!-- openai&#45;&gt;llm -->
<g id="edge10" class="edge">
<title>openai&#45;&gt;llm</title><style>.edge>path:hover{stroke-width:8}</style>
<path fill="none" stroke="black" d="M231.43,-189.95C231.43,-182.66 231.43,-173.98 231.43,-165.79"/>
<polygon fill="#4057c0" stroke="black" points="234.93,-165.87 231.43,-155.87 227.93,-165.87 234.93,-165.87"/>
</g>
<!-- report_generator&#45;&gt;command_tool_py -->
<g id="edge11" class="edge">
<title>report_generator&#45;&gt;command_tool_py</title><style>.edge>path:hover{stroke-width:8}</style>
<path fill="none" stroke="black" d="M328.19,-123.58C309.9,-115.47 290.99,-102.4 286.43,-82.25"/>
</g>
<!-- requests -->
<g id="node10" class="node">
<title>requests</title><style>.edge>path:hover{stroke-width:8}</style>
<ellipse fill="#b440c0" stroke="black" cx="479.43" cy="-208.25" rx="32.17" ry="18"/>
<text text-anchor="middle" x="479.43" y="-204.75" font-family="Helvetica,sans-Serif" font-size="10.00" fill="#ffffff">requests</text>
</g>
<!-- requests&#45;&gt;github_client -->
<g id="edge12" class="edge">
<title>requests&#45;&gt;github_client</title><style>.edge>path:hover{stroke-width:8}</style>
<path fill="none" stroke="black" d="M479.43,-189.95C479.43,-182.66 479.43,-173.98 479.43,-165.79"/>
<polygon fill="#b440c0" stroke="black" points="482.93,-165.87 479.43,-155.87 475.93,-165.87 482.93,-165.87"/>
</g>
<!-- subscription_manager -->
<g id="node11" class="node">
<title>subscription_manager</title><style>.edge>path:hover{stroke-width:8}</style>
<ellipse fill="#b65389" stroke="black" cx="606.43" cy="-136.25" rx="66.9" ry="18"/>
<text text-anchor="middle" x="606.43" y="-132.75" font-family="Helvetica,sans-Serif" font-size="10.00" fill="#ffffff">subscription_manager</text>
</g>
<!-- subscription_manager&#45;&gt;command_tool_py -->
<g id="edge13" class="edge">
<title>subscription_manager&#45;&gt;command_tool_py</title><style>.edge>path:hover{stroke-width:8}</style>
<path fill="none" stroke="black" d="M557.72,-123.64C548.99,-121.73 539.96,-119.85 531.43,-118.25 477.33,-108.17 298.57,-135.93 286.43,-82.25"/>
</g>
</g>
</svg>
